HIERARCHY
ROOT RootJoint
{
    OFFSET   0.000000   0.000000   0.000000
    CHANNELS 6 Xposition Yposition Zposition Xrotation Yrotation Zrotation
    JOINT pelvis_lowerback
    {
        OFFSET   0.000000   0.093605   0.000000
        CHANNELS 3 Xrotation Yrotation Zrotation
        JOINT lowerback_torso
        {
            OFFSET   0.000000   0.100000   0.000000
            CHANNELS 3 Xrotation Yrotation Zrotation
            JOINT torso_head
            {
                OFFSET   0.000000   0.282350   0.000000
                CHANNELS 3 Xrotation Yrotation Zrotation
                End Site
                {
                    OFFSET   0.000000   0.192650   0.000000
                }
            }
            JOINT rTorso_Clavicle
            {
                OFFSET  -0.001000   0.157500   0.000000
                CHANNELS 3 Xrotation Yrotation Zrotation
                JOINT rShoulder
                {
                    OFFSET  -0.117647   0.000000   0.000000
                    CHANNELS 3 Xrotation Yrotation Zrotation
                    JOINT rElbow
                    {
                        OFFSET  -0.245000   0.000000   0.000000
                        CHANNELS 3 Xrotation Yrotation Zrotation
                        JOINT rWrist
                        {
                            OFFSET  -0.240000   0.000000   0.000000
                            CHANNELS 3 Xrotation Yrotation Zrotation
                            End Site
                            {
                                OFFSET  -0.116353  -0.002500   0.000000
                            }
                        }
                    }
                }
            }
            JOINT lTorso_Clavicle
            {
                OFFSET   0.001000   0.157500   0.000000
                CHANNELS 3 Xrotation Yrotation Zrotation
                JOINT lShoulder
                {
                    OFFSET   0.117647   0.000000   0.000000
                    CHANNELS 3 Xrotation Yrotation Zrotation
                    JOINT lElbow
                    {
                        OFFSET   0.245000   0.000000   0.000000
                        CHANNELS 3 Xrotation Yrotation Zrotation
                        JOINT lWrist
                        {
                            OFFSET   0.240000   0.000000   0.000000
                            CHANNELS 3 Xrotation Yrotation Zrotation
                            End Site
                            {
                                OFFSET   0.116353  -0.002500   0.000000
                            }
                        }
                    }
                }
            }
        }
    }
    JOINT rHip
    {
        OFFSET  -0.100000  -0.051395   0.000000
        CHANNELS 3 Xrotation Yrotation Zrotation
        JOINT rKnee
        {
            OFFSET   0.000000  -0.410000   0.000000
            CHANNELS 3 Xrotation Yrotation Zrotation
            JOINT rAnkle
            {
                OFFSET   0.000000  -0.390000   0.000000
                CHANNELS 3 Xrotation Yrotation Zrotation
                JOINT rToeJoint
                {
                    OFFSET   0.000000  -0.050000   0.130000
                    CHANNELS 3 Xrotation Yrotation Zrotation
                    End Site
                    {
                        OFFSET  -0.010000   0.002000   0.060000
                    }
                }
            }
        }
    }
    JOINT lHip
    {
        OFFSET   0.100000  -0.051395   0.000000
        CHANNELS 3 Xrotation Yrotation Zrotation
        JOINT lKnee
        {
            OFFSET   0.000000  -0.410000   0.000000
            CHANNELS 3 Xrotation Yrotation Zrotation
            JOINT lAnkle
            {
                OFFSET   0.000000  -0.390000   0.000000
                CHANNELS 3 Xrotation Yrotation Zrotation
                JOINT lToeJoint
                {
                    OFFSET   0.000000  -0.050000   0.130000
                    CHANNELS 3 Xrotation Yrotation Zrotation
                    End Site
                    {
                        OFFSET   0.010000   0.002000   0.060000
                    }
                }
            }
        }
    }
}
MOTION
Frames: 14
Frame Time:   0.008333
 -2.376719   0.925631   3.975860   0.000000   0.000000   0.000000   0.000000   0.000000   0.000000   0.000000   0.000000   0.000000   0.000000   0.000000   0.000000   0.000000   0.000000   0.000000   0.000000   0.000000   0.000000   0.000000   0.000000   0.000000   0.000000   0.000000   0.000000   0.000000   0.000000   0.000000   0.000000   0.000000   0.000000   0.000000   0.000000   0.000000   0.000000   0.000000   0.000000   0.000000   0.000000   0.000000   0.000000   0.000000   0.000000   0.000000   0.000000   0.000000   0.000000   0.000000   0.000000   0.000000   0.000000   0.000000   0.000000   0.000000   0.000000   0.000000   0.000000   0.000000   0.000000   0.000000   0.000000
 -2.376830   0.924844   3.974061   0.608838  -0.283010  -0.055280  -0.348261   0.138384  -0.008439  -0.236775   0.071749   0.024058   0.059691   0.433170  -0.112388   0.073146  -0.624855  -0.589026  -0.106675   0.173149   1.512527   0.027487   3.574561  -0.000481  -0.037563  -1.479586  -1.055355  -0.267199   0.425918   0.538209  -1.022391   0.343228  -0.880195   0.010850  -3.590261  -0.039481  -0.079011   1.247777   0.743399  -2.014771   0.033526  -0.069163   3.433011   0.003708  -0.007574  -1.450160  -0.114788   0.265139  -0.140018   0.000158   0.000444  -1.717271   0.136569   0.204795   3.031024  -0.003867  -0.003689  -2.856629   0.604162   0.007171   0.260691  -0.000319   0.001041
 -2.376921   0.923479   3.972410   1.026842  -0.615890  -0.127417  -0.646202   0.281885  -0.017647  -0.411383   0.169654   0.074343   0.153206   0.852459  -0.241726   0.139978  -1.101865  -0.954252  -0.219464   0.481770   3.098971   0.060112   7.289083   0.001833  -0.070517  -1.924872  -1.809321  -0.527185   0.741615   0.985681  -1.982963   0.559973  -1.764608   0.018047  -7.304774  -0.073306  -0.191834   1.534455   1.323035  -3.914576   0.057712  -0.244449   7.183498   0.010329  -0.017120  -2.782166  -0.232177   0.509719  -0.237086   0.000108   0.000727  -3.216797   0.258103   0.538468   6.196450  -0.010340  -0.007724  -5.519788   1.176704   0.044892   0.422582  -0.000623   0.001357
 -2.376917   0.922454   3.970638   1.244739  -0.701446  -0.053584  -0.824215   0.322840  -0.144918  -0.528042   0.193330   0.092674   0.236666   1.240895  -0.375568   0.203470  -1.461453  -1.083376  -0.338320   0.835637   4.720868   0.094967  11.036861   0.004495  -0.101108  -2.029811  -2.312274  -0.769983   0.898539   1.291948  -2.878917   0.673307  -2.654576   0.024398 -11.061644  -0.099638  -0.299882   1.465624   1.793825  -5.792817   0.201862  -0.356172  10.381651   0.008959  -0.013225  -4.185788  -0.165312   0.864297  -0.818596   0.001621   0.000071  -4.716423   0.460726   0.534645   9.116843  -0.009562  -0.002346  -7.930018   1.779175  -0.030151   0.636865  -0.000408   0.002450
 -2.376816   0.921150   3.969205   1.302629  -0.708130  -0.049926  -0.981093   0.352697  -0.171253  -0.603835   0.197591   0.145653   0.320819   1.603832  -0.508593   0.267403  -1.734673  -1.123672  -0.460155   1.210631   6.305901   0.125969  14.803694   0.009776  -0.128835  -1.985295  -2.594351  -0.991358   0.961496   1.510705  -3.710827   0.729502  -3.544427   0.025799 -14.844215  -0.122660  -0.401085   1.226104   2.096182  -7.519218   0.281331  -0.473902  13.645605   0.010218  -0.010098  -5.383791  -0.214038   1.081775  -1.479649   0.001816   0.000141  -6.075211   0.620204   0.585510  11.877495  -0.007994   0.002656 -10.229438   2.305353  -0.014876   0.797043  -0.000342   0.002931
 -2.376634   0.919510   3.968163   1.266888  -0.692471  -0.085838  -1.155189   0.387251  -0.146356  -0.682166   0.202717   0.238799   0.396867   1.943194  -0.630258   0.331691  -1.944944  -1.092536  -0.583538   1.590847   7.838301   0.151485  18.583015   0.017848  -0.155199  -1.859578  -2.732171  -1.193061   0.973648   1.671809  -4.483030   0.759461  -4.409040   0.021562 -18.640425  -0.144074  -0.496936   0.903802   2.293182  -9.081596   0.329117  -0.651271  16.783376   0.013798  -0.008784  -6.468823  -0.302087   1.273436  -1.715696   0.001381   0.000278  -7.325613   0.771069   0.666157  14.513170  -0.006015   0.006770 -12.366720   2.792190   0.021844   0.932560  -0.000289   0.003143
 -2.376397   0.917505   3.967520   1.177003  -0.701841  -0.158622  -1.362147   0.439320  -0.076854  -0.780686   0.222471   0.368564   0.461431   2.260629  -0.741486   0.396912  -2.108020  -1.008467  -0.706451   1.966985   9.310757   0.170739  22.370756   0.028214  -0.181524  -1.686154  -2.762766  -1.376421   0.963943   1.796559  -5.199093   0.782711  -5.235981   0.011662 -22.442578  -0.164556  -0.588828   0.550154   2.425194 -10.499564   0.359982  -0.899759  19.765342   0.018853  -0.010068  -7.462037  -0.420265   1.441275  -1.698925   0.001129   0.000198  -8.457305   0.911756   0.784080  17.062955  -0.004168   0.009185 -14.342561   3.241033   0.077753   1.049583  -0.000258   0.003137
 -2.376148   0.914457   3.966839   0.975438  -0.858565  -0.245915  -1.437594   0.652324  -0.027055  -0.854790   0.193379   0.585099   0.471560   2.574508  -0.878659   0.566061  -2.408467  -1.076535  -0.790918   2.512569  10.591523   0.177841  26.191988   0.030426  -0.257056  -1.390751  -2.442419  -1.599478   0.973366   1.952938  -6.434403   0.777331  -5.958948  -0.014560 -26.190969  -0.201443  -0.696965   0.200785   2.373627 -12.164464   0.657503  -1.233554  23.556961   0.030229  -0.011053  -8.639239  -0.477692   1.524039  -1.623907   0.001167   0.000132  -9.465944   0.914636   1.063955  19.993797  -0.007564   0.005872 -16.270256   3.464555   0.034179   1.250867  -0.000365   0.002707
 -2.375854   0.910826   3.966420   0.678625  -0.932133  -0.309050  -1.481216   0.801094   0.014105  -0.892868   0.116174   0.795325   0.490660   2.867780  -1.003753   0.723339  -2.696604  -1.186206  -0.880171   3.021021  11.748078   0.176652  30.017331   0.034667  -0.322046  -1.057898  -2.148149  -1.815864   0.938597   2.138923  -7.598736   0.747959  -6.596866  -0.043754 -29.709067  -0.228345  -0.808018  -0.252753   2.421011 -13.766341   0.970466  -1.677841  27.299054   0.042410  -0.012314  -9.747999  -0.510901   1.612830  -1.769827   0.000302   0.000086 -10.356623   0.955163   1.329879  22.868327  -0.009865   0.006699 -18.047854   3.701310  -0.052615   1.461741  -0.000423   0.002628
 -2.375532   0.906888   3.966329   0.310190  -0.914384  -0.376346  -1.517267   0.887957   0.073516  -0.917195  -0.006931   1.003647   0.512547   3.140859  -1.119879   0.870013  -2.977466  -1.306966  -0.970943   3.486237  12.809928   0.169974  33.839962   0.041542  -0.383061  -0.740478  -1.907262  -2.019003   0.868671   2.330723  -8.689335   0.703684  -7.176698  -0.072328 -33.003766  -0.247658  -0.908519  -0.756335   2.529146 -15.234190   1.276776  -2.223326  30.848976   0.054534  -0.014510 -10.758614  -0.575044   1.677827  -1.603571   0.001158   0.000070 -11.202232   1.050731   1.541436  25.625871  -0.008990   0.010466 -19.696950   3.945862  -0.165370   1.665557  -0.000313   0.002830
 -2.375277   0.902763   3.966591  -0.120681  -0.857181  -0.479894  -1.552717   0.940885   0.162649  -0.937063  -0.153745   1.224617   0.533664   3.395628  -1.226015   1.008726  -3.247313  -1.424400  -1.060392   3.914066  13.795664   0.158860  37.636860   0.050920  -0.441849  -0.439960  -1.694888  -2.208876   0.778367   2.525022  -9.709710   0.653385  -7.707289  -0.098779 -36.086074  -0.261226  -1.000000  -1.280785   2.671662 -16.576142   1.587929  -2.805151  34.168657   0.064845  -0.017967 -11.699999  -0.637500   1.736557  -1.439836   0.001952   0.000033 -12.006368   1.176682   1.722930  28.275040  -0.005797   0.014339 -21.224705   4.183084  -0.278998   1.851996  -0.000104   0.003039
 -2.375170   0.898397   3.967244  -0.590720  -0.854308  -0.631788  -1.609121   1.003972   0.277247  -0.965390  -0.284400   1.463012   0.553367   3.633665  -1.321231   1.137643  -3.484910  -1.538017  -1.151207   4.328384  14.715771   0.142215  41.195165   0.061915  -0.496173  -0.056822  -1.485649  -2.386744   0.683447   2.732508 -10.664427   0.604923  -8.186565  -0.122842 -38.967105  -0.270716  -1.083537  -1.806928   2.839226 -17.838188   1.904711  -3.383080  37.266552   0.071968  -0.024059 -12.578745  -0.696911   1.790466  -1.291691   0.002554  -0.000123 -12.697224   1.262908   1.956449  30.833363  -0.003649   0.015410 -22.632937   4.387083  -0.349823   2.014914  -0.000024   0.002950
 -2.375211   0.893823   3.968265  -1.087336  -0.893941  -0.814064  -1.686362   1.068136   0.401199  -1.008137  -0.401495   1.708609   0.569040   3.855844  -1.408494   1.258491  -3.698506  -1.643638  -1.241261   4.721229  15.575406   0.121503  44.520924   0.073952  -0.548665   0.344388  -1.284004  -2.554611   0.590520   2.949273 -11.558555   0.561371  -8.617872  -0.143955 -41.658372  -0.276933  -1.159596  -2.324166   3.036606 -19.034883   2.221584  -3.968580  40.148920   0.076059  -0.031393 -13.399384  -0.753727   1.839986  -1.158307   0.002979  -0.000341 -13.285917   1.332139   2.229422  33.294656  -0.002352   0.015121 -23.940184   4.574198  -0.405484   2.166279  -0.000000   0.002757
 -2.374876   0.889609   3.969195  -1.437122  -0.961102  -0.653900  -1.657763   1.090720   0.314293  -1.256301  -0.510228   1.751206   0.464143   3.984242  -1.350972   1.282604  -3.898299  -1.717208  -1.437303   5.126603  16.495159   0.097093  47.877820   0.093262  -0.693456   0.528761  -1.093984  -2.582887   0.683725   3.255505 -12.286839   0.556558  -9.001511  -0.157162 -44.190409  -0.271304  -1.233568  -2.887235   3.284327 -20.221825   2.681927  -4.999573  42.640416   0.078342  -0.038637 -13.630221  -0.916454   1.805774  -1.027559   0.003537  -0.000756 -13.697792   1.113863   1.965342  34.986643  -0.002272   0.007387 -24.221205   4.320736  -0.379163   2.379942  -0.000012   0.001155
